<svg xmlns="http://www.w3.org/2000/svg" xmlns:xlink="http://www.w3.org/1999/xlink" width="530.148" height="151.394" viewBox="0 0 530.148 151.394">
  <defs>
    <filter id="Rectangle_3530" x="67.148" y="29.396" width="463" height="98" filterUnits="userSpaceOnUse">
      <feOffset dy="3" input="SourceAlpha"/>
      <feGaussianBlur stdDeviation="3" result="blur"/>
      <feFlood flood-opacity="0.161"/>
      <feComposite operator="in" in2="blur"/>
      <feComposite in="SourceGraphic"/>
    </filter>
    <filter id="Path_9557" x="3.616" y="12.924" width="144.161" height="133.753" filterUnits="userSpaceOnUse">
      <feOffset dy="3" input="SourceAlpha"/>
      <feGaussianBlur stdDeviation="3" result="blur-2"/>
      <feFlood flood-opacity="0.161"/>
      <feComposite operator="in" in2="blur-2"/>
      <feComposite in="SourceGraphic"/>
    </filter>
  </defs>
  <g id="Group_35971" data-name="Group 35971" transform="translate(-294.852 -7883.604)">
    <g id="Group_35970" data-name="Group 35970">
      <g transform="matrix(1, 0, 0, 1, 294.85, 7883.6)" filter="url(#Rectangle_3530)">
        <rect id="Rectangle_3530-2" data-name="Rectangle 3530" width="445" height="80" rx="19" transform="translate(76.15 35.4)" fill="#fff"/>
      </g>
      <g id="favorite_black_24dp_1_" data-name="favorite_black_24dp (1)" transform="translate(294.852 7883.604)">
        <path id="Path_9556" data-name="Path 9556" d="M0,0H151.393V151.393H0Z" fill="none"/>
        <g transform="matrix(1, 0, 0, 1, 0, 0)" filter="url(#Path_9557)">
          <path id="Path_9557-2" data-name="Path 9557" d="M65.081,118.753l-9.147-8.327C23.447,80.968,2,61.539,2,37.694A34.357,34.357,0,0,1,36.694,3,37.775,37.775,0,0,1,65.081,16.184,37.775,37.775,0,0,1,93.467,3a34.357,34.357,0,0,1,34.694,34.694c0,23.844-21.447,43.273-53.934,72.795Z" transform="translate(10.62 15.92)" fill="#fff"/>
        </g>
      </g>
    </g>
    <g id="pets_black_24dp" transform="translate(343.947 7932.7)">
      <path id="Path_9539" data-name="Path 9539" d="M0,0H53.2V53.2H0Z" fill="none"/>
      <circle id="Ellipse_1170" data-name="Ellipse 1170" cx="5.542" cy="5.542" r="5.542" transform="translate(4.433 15.517)" fill="#dc6e89"/>
      <circle id="Ellipse_1171" data-name="Ellipse 1171" cx="5.542" cy="5.542" r="5.542" transform="translate(14.408 6.65)" fill="#dc6e89"/>
      <circle id="Ellipse_1172" data-name="Ellipse 1172" cx="5.542" cy="5.542" r="5.542" transform="translate(27.708 6.65)" fill="#dc6e89"/>
      <circle id="Ellipse_1173" data-name="Ellipse 1173" cx="5.542" cy="5.542" r="5.542" transform="translate(37.684 15.517)" fill="#dc6e89"/>
      <path id="Path_9540" data-name="Path 9540" d="M33.578,20.165c-1.929-2.261-3.547-4.19-5.5-6.451A9.4,9.4,0,0,0,24.2,10.788a4.488,4.488,0,0,0-.732-.2,11.156,11.156,0,0,0-1.729-.089,9.3,9.3,0,0,0-1.751.111,4.488,4.488,0,0,0-.732.2,9.549,9.549,0,0,0-3.879,2.926c-1.929,2.261-3.547,4.19-5.5,6.451-2.9,2.9-6.473,6.118-5.808,10.618a6.96,6.96,0,0,0,5.165,5.143c1.618.333,6.783-.975,12.28-.975h.4c5.5,0,10.662,1.286,12.28.975A6.993,6.993,0,0,0,39.364,30.8c.687-4.522-2.882-7.736-5.786-10.64Z" transform="translate(4.859 12.775)" fill="#dc6e89"/>
    </g>
  </g>
</svg>
