<!--?xml version="1.0" standalone="no"?-->
              <svg id="sw-js-blob-svg" viewBox="0 0 100 100" xmlns="http://www.w3.org/2000/svg" version="1.1">
                    <defs> 
                        <linearGradient id="sw-gradient" x1="0" x2="1" y1="1" y2="0">
                            <stop id="stop1" stop-color="#E18399" offset="0%"></stop>
                            <stop id="stop2" stop-color="#E18399" offset="100%"></stop>
                        </linearGradient>
                    </defs>
                <path fill="url(#sw-gradient)" d="M20.7,-36.7C26.5,-32.6,30.6,-26.3,34.9,-19.8C39.3,-13.3,44,-6.7,44.8,0.5C45.7,7.6,42.6,15.2,37.9,21.2C33.2,27.1,26.9,31.3,20.3,34.6C13.7,38,6.8,40.5,-0.7,41.7C-8.2,42.9,-16.4,42.8,-23.6,39.8C-30.8,36.8,-37,30.9,-40.3,23.7C-43.6,16.6,-44.1,8.3,-42.5,0.9C-41,-6.5,-37.5,-13.1,-33.8,-19.5C-30,-25.9,-26.1,-32.1,-20.4,-36.2C-14.8,-40.3,-7.4,-42.3,0.1,-42.4C7.5,-42.5,15,-40.7,20.7,-36.7Z" width="100%" height="100%" transform="translate(50 50)" stroke-width="0" style="transition: all 0.3s ease 0s;" stroke="url(#sw-gradient)"></path>
              </svg>