<svg xmlns="http://www.w3.org/2000/svg" width="1876.172" height="1189.871" viewBox="0 0 1876.172 1189.871">
  <g id="Group_35959" data-name="Group 35959" transform="translate(0)">
    <g id="pets_black_24dp" transform="translate(1876.172 51.331) rotate(150)">
      <path id="Path_9539" data-name="Path 9539" d="M0,0H59.272V59.272H0Z" transform="translate(0 0)" fill="none"/>
      <circle id="Ellipse_1170" data-name="Ellipse 1170" cx="6.174" cy="6.174" r="6.174" transform="translate(4.939 17.288)" fill="#f6f7fc"/>
      <circle id="Ellipse_1171" data-name="Ellipse 1171" cx="6.174" cy="6.174" r="6.174" transform="translate(16.053 7.409)" fill="#f6f7fc"/>
      <circle id="Ellipse_1172" data-name="Ellipse 1172" cx="6.174" cy="6.174" r="6.174" transform="translate(30.871 7.409)" fill="#f6f7fc"/>
      <circle id="Ellipse_1173" data-name="Ellipse 1173" cx="6.174" cy="6.174" r="6.174" transform="translate(41.985 17.288)" fill="#f6f7fc"/>
      <path id="Path_9540" data-name="Path 9540" d="M32.962,10.768C30.813,8.249,29.01,6.1,26.837,3.581A10.478,10.478,0,0,0,22.515.321,5,5,0,0,0,21.7.1,12.43,12.43,0,0,0,19.773,0a10.36,10.36,0,0,0-1.951.123,5,5,0,0,0-.815.222,10.639,10.639,0,0,0-4.322,3.26c-2.149,2.519-3.951,4.668-6.125,7.187C3.325,14.028-.651,17.609.09,22.622a7.754,7.754,0,0,0,5.754,5.73c1.8.37,7.557-1.087,13.682-1.087h.445c6.125,0,11.879,1.432,13.682,1.087a7.791,7.791,0,0,0,5.754-5.73C40.173,17.584,36.2,14,32.962,10.768Z" transform="translate(9.863 25.932)" fill="#f6f7fc"/>
    </g>
    <g id="pets_black_24dp-2" data-name="pets_black_24dp" transform="translate(1736.688 239.967) rotate(-150)">
      <path id="Path_9539-2" data-name="Path 9539" d="M0,0H59.272V59.272H0Z" transform="translate(0 0)" fill="none"/>
      <circle id="Ellipse_1170-2" data-name="Ellipse 1170" cx="6.174" cy="6.174" r="6.174" transform="translate(4.939 17.288)" fill="#f6f7fc"/>
      <circle id="Ellipse_1171-2" data-name="Ellipse 1171" cx="6.174" cy="6.174" r="6.174" transform="translate(16.053 7.409)" fill="#f6f7fc"/>
      <circle id="Ellipse_1172-2" data-name="Ellipse 1172" cx="6.174" cy="6.174" r="6.174" transform="translate(30.871 7.409)" fill="#f6f7fc"/>
      <circle id="Ellipse_1173-2" data-name="Ellipse 1173" cx="6.174" cy="6.174" r="6.174" transform="translate(41.985 17.288)" fill="#f6f7fc"/>
      <path id="Path_9540-2" data-name="Path 9540" d="M32.962,10.768C30.813,8.249,29.01,6.1,26.837,3.581A10.478,10.478,0,0,0,22.515.321,5,5,0,0,0,21.7.1,12.429,12.429,0,0,0,19.773,0a10.36,10.36,0,0,0-1.951.123,5,5,0,0,0-.815.222,10.639,10.639,0,0,0-4.322,3.26c-2.149,2.519-3.951,4.668-6.125,7.187C3.325,14.028-.651,17.609.09,22.622a7.754,7.754,0,0,0,5.754,5.73c1.8.37,7.557-1.087,13.682-1.087h.445c6.125,0,11.879,1.432,13.682,1.087a7.791,7.791,0,0,0,5.754-5.73C40.173,17.584,36.2,14,32.962,10.768Z" transform="translate(9.863 25.932)" fill="#f6f7fc"/>
    </g>
    <g id="pets_black_24dp-3" data-name="pets_black_24dp" transform="translate(1810.688 385.967) rotate(-150)">
      <path id="Path_9539-3" data-name="Path 9539" d="M0,0H59.272V59.272H0Z" transform="translate(0 0)" fill="none"/>
      <circle id="Ellipse_1170-3" data-name="Ellipse 1170" cx="6.174" cy="6.174" r="6.174" transform="translate(4.939 17.288)" fill="#f6f7fc"/>
      <circle id="Ellipse_1171-3" data-name="Ellipse 1171" cx="6.174" cy="6.174" r="6.174" transform="translate(16.053 7.409)" fill="#f6f7fc"/>
      <circle id="Ellipse_1172-3" data-name="Ellipse 1172" cx="6.174" cy="6.174" r="6.174" transform="translate(30.871 7.409)" fill="#f6f7fc"/>
      <circle id="Ellipse_1173-3" data-name="Ellipse 1173" cx="6.174" cy="6.174" r="6.174" transform="translate(41.985 17.288)" fill="#f6f7fc"/>
      <path id="Path_9540-3" data-name="Path 9540" d="M32.962,10.768C30.813,8.249,29.01,6.1,26.837,3.581A10.478,10.478,0,0,0,22.515.321,5,5,0,0,0,21.7.1,12.429,12.429,0,0,0,19.773,0a10.36,10.36,0,0,0-1.951.123,5,5,0,0,0-.815.222,10.639,10.639,0,0,0-4.322,3.26c-2.149,2.519-3.951,4.668-6.125,7.187C3.325,14.028-.651,17.609.09,22.622a7.754,7.754,0,0,0,5.754,5.73c1.8.37,7.557-1.087,13.682-1.087h.445c6.125,0,11.879,1.432,13.682,1.087a7.791,7.791,0,0,0,5.754-5.73C40.173,17.584,36.2,14,32.962,10.768Z" transform="translate(9.863 25.932)" fill="#f6f7fc"/>
    </g>
    <g id="pets_black_24dp-4" data-name="pets_black_24dp" transform="translate(1553.992 497.967) rotate(-120)">
      <path id="Path_9539-4" data-name="Path 9539" d="M0,0H59.272V59.272H0Z" transform="translate(0 0)" fill="none"/>
      <circle id="Ellipse_1170-4" data-name="Ellipse 1170" cx="6.174" cy="6.174" r="6.174" transform="translate(4.939 17.288)" fill="#f6f7fc"/>
      <circle id="Ellipse_1171-4" data-name="Ellipse 1171" cx="6.174" cy="6.174" r="6.174" transform="translate(16.053 7.409)" fill="#f6f7fc"/>
      <circle id="Ellipse_1172-4" data-name="Ellipse 1172" cx="6.174" cy="6.174" r="6.174" transform="translate(30.871 7.409)" fill="#f6f7fc"/>
      <circle id="Ellipse_1173-4" data-name="Ellipse 1173" cx="6.174" cy="6.174" r="6.174" transform="translate(41.985 17.288)" fill="#f6f7fc"/>
      <path id="Path_9540-4" data-name="Path 9540" d="M32.962,10.768C30.813,8.249,29.01,6.1,26.837,3.581A10.478,10.478,0,0,0,22.515.321,5,5,0,0,0,21.7.1,12.43,12.43,0,0,0,19.773,0a10.36,10.36,0,0,0-1.951.123,5,5,0,0,0-.815.222,10.639,10.639,0,0,0-4.322,3.26c-2.149,2.519-3.951,4.668-6.125,7.187C3.325,14.028-.651,17.609.09,22.622a7.754,7.754,0,0,0,5.754,5.73c1.8.37,7.557-1.087,13.682-1.087h.445c6.125,0,11.879,1.432,13.682,1.087a7.791,7.791,0,0,0,5.754-5.73C40.173,17.584,36.2,14,32.962,10.768Z" transform="translate(9.863 25.932)" fill="#f6f7fc"/>
    </g>
    <g id="pets_black_24dp-5" data-name="pets_black_24dp" transform="matrix(-0.259, -0.966, 0.966, -0.259, 1409.883, 370.78)">
      <path id="Path_9539-5" data-name="Path 9539" d="M0,0H59.272V59.272H0Z" transform="translate(0 0)" fill="none"/>
      <ellipse id="Ellipse_1170-5" data-name="Ellipse 1170" cx="6.174" cy="6.174" rx="6.174" ry="6.174" transform="translate(4.939 17.288)" fill="#f6f7fc"/>
      <ellipse id="Ellipse_1171-5" data-name="Ellipse 1171" cx="6.174" cy="6.174" rx="6.174" ry="6.174" transform="translate(16.053 7.409)" fill="#f6f7fc"/>
      <ellipse id="Ellipse_1172-5" data-name="Ellipse 1172" cx="6.174" cy="6.174" rx="6.174" ry="6.174" transform="translate(30.871 7.409)" fill="#f6f7fc"/>
      <ellipse id="Ellipse_1173-5" data-name="Ellipse 1173" cx="6.174" cy="6.174" rx="6.174" ry="6.174" transform="translate(41.985 17.288)" fill="#f6f7fc"/>
      <path id="Path_9540-5" data-name="Path 9540" d="M32.962,10.768C30.813,8.249,29.01,6.1,26.837,3.581A10.478,10.478,0,0,0,22.515.321,5,5,0,0,0,21.7.1,12.43,12.43,0,0,0,19.773,0a10.36,10.36,0,0,0-1.951.123,5,5,0,0,0-.815.222,10.639,10.639,0,0,0-4.322,3.26c-2.149,2.519-3.951,4.668-6.125,7.187C3.325,14.028-.651,17.609.09,22.622a7.754,7.754,0,0,0,5.754,5.73c1.8.37,7.557-1.087,13.682-1.087h.445c6.125,0,11.879,1.432,13.682,1.087a7.791,7.791,0,0,0,5.754-5.73C40.173,17.584,36.2,14,32.962,10.768Z" transform="translate(9.863 25.932)" fill="#f6f7fc"/>
    </g>
    <g id="pets_black_24dp-6" data-name="pets_black_24dp" transform="translate(1245.203 519.12) rotate(-90)">
      <path id="Path_9539-6" data-name="Path 9539" d="M0,0H59.272V59.272H0Z" transform="translate(0 0)" fill="none"/>
      <ellipse id="Ellipse_1170-6" data-name="Ellipse 1170" cx="6.174" cy="6.174" rx="6.174" ry="6.174" transform="translate(4.939 17.288)" fill="#f6f7fc"/>
      <ellipse id="Ellipse_1171-6" data-name="Ellipse 1171" cx="6.174" cy="6.174" rx="6.174" ry="6.174" transform="translate(16.053 7.409)" fill="#f6f7fc"/>
      <ellipse id="Ellipse_1172-6" data-name="Ellipse 1172" cx="6.174" cy="6.174" rx="6.174" ry="6.174" transform="translate(30.871 7.409)" fill="#f6f7fc"/>
      <ellipse id="Ellipse_1173-6" data-name="Ellipse 1173" cx="6.174" cy="6.174" rx="6.174" ry="6.174" transform="translate(41.985 17.288)" fill="#f6f7fc"/>
      <path id="Path_9540-6" data-name="Path 9540" d="M32.962,10.768C30.813,8.249,29.01,6.1,26.837,3.581A10.478,10.478,0,0,0,22.515.321,5,5,0,0,0,21.7.1,12.43,12.43,0,0,0,19.773,0a10.36,10.36,0,0,0-1.951.123,5,5,0,0,0-.815.222,10.639,10.639,0,0,0-4.322,3.26c-2.149,2.519-3.951,4.668-6.125,7.187C3.325,14.028-.651,17.609.09,22.622a7.754,7.754,0,0,0,5.754,5.73c1.8.37,7.557-1.087,13.682-1.087h.445c6.125,0,11.879,1.432,13.682,1.087a7.791,7.791,0,0,0,5.754-5.73C40.173,17.584,36.2,14,32.962,10.768Z" transform="translate(9.863 25.932)" fill="#f6f7fc"/>
    </g>
    <g id="pets_black_24dp-7" data-name="pets_black_24dp" transform="translate(1108.203 352.12) rotate(-90)">
      <path id="Path_9539-7" data-name="Path 9539" d="M0,0H59.272V59.272H0Z" transform="translate(0 0)" fill="none"/>
      <ellipse id="Ellipse_1170-7" data-name="Ellipse 1170" cx="6.174" cy="6.174" rx="6.174" ry="6.174" transform="translate(4.939 17.288)" fill="#f6f7fc"/>
      <ellipse id="Ellipse_1171-7" data-name="Ellipse 1171" cx="6.174" cy="6.174" rx="6.174" ry="6.174" transform="translate(16.053 7.409)" fill="#f6f7fc"/>
      <ellipse id="Ellipse_1172-7" data-name="Ellipse 1172" cx="6.174" cy="6.174" rx="6.174" ry="6.174" transform="translate(30.871 7.409)" fill="#f6f7fc"/>
      <ellipse id="Ellipse_1173-7" data-name="Ellipse 1173" cx="6.174" cy="6.174" rx="6.174" ry="6.174" transform="translate(41.985 17.288)" fill="#f6f7fc"/>
      <path id="Path_9540-7" data-name="Path 9540" d="M32.962,10.768C30.813,8.249,29.01,6.1,26.837,3.581A10.478,10.478,0,0,0,22.515.321,5,5,0,0,0,21.7.1,12.43,12.43,0,0,0,19.773,0a10.36,10.36,0,0,0-1.951.123,5,5,0,0,0-.815.222,10.639,10.639,0,0,0-4.322,3.26c-2.149,2.519-3.951,4.668-6.125,7.187C3.325,14.028-.651,17.609.09,22.622a7.754,7.754,0,0,0,5.754,5.73c1.8.37,7.557-1.087,13.682-1.087h.445c6.125,0,11.879,1.432,13.682,1.087a7.791,7.791,0,0,0,5.754-5.73C40.173,17.584,36.2,14,32.962,10.768Z" transform="translate(9.863 25.932)" fill="#f6f7fc"/>
    </g>
    <g id="pets_black_24dp-8" data-name="pets_black_24dp" transform="translate(931.203 519.12) rotate(-90)">
      <path id="Path_9539-8" data-name="Path 9539" d="M0,0H59.272V59.272H0Z" transform="translate(0 0)" fill="none"/>
      <ellipse id="Ellipse_1170-8" data-name="Ellipse 1170" cx="6.174" cy="6.174" rx="6.174" ry="6.174" transform="translate(4.939 17.288)" fill="#f6f7fc"/>
      <ellipse id="Ellipse_1171-8" data-name="Ellipse 1171" cx="6.174" cy="6.174" rx="6.174" ry="6.174" transform="translate(16.053 7.409)" fill="#f6f7fc"/>
      <ellipse id="Ellipse_1172-8" data-name="Ellipse 1172" cx="6.174" cy="6.174" rx="6.174" ry="6.174" transform="translate(30.871 7.409)" fill="#f6f7fc"/>
      <ellipse id="Ellipse_1173-8" data-name="Ellipse 1173" cx="6.174" cy="6.174" rx="6.174" ry="6.174" transform="translate(41.985 17.288)" fill="#f6f7fc"/>
      <path id="Path_9540-8" data-name="Path 9540" d="M32.962,10.768C30.813,8.249,29.01,6.1,26.837,3.581A10.478,10.478,0,0,0,22.515.321,5,5,0,0,0,21.7.1,12.43,12.43,0,0,0,19.773,0a10.36,10.36,0,0,0-1.951.123,5,5,0,0,0-.815.222,10.639,10.639,0,0,0-4.322,3.26c-2.149,2.519-3.951,4.668-6.125,7.187C3.325,14.028-.651,17.609.09,22.622a7.754,7.754,0,0,0,5.754,5.73c1.8.37,7.557-1.087,13.682-1.087h.445c6.125,0,11.879,1.432,13.682,1.087a7.791,7.791,0,0,0,5.754-5.73C40.173,17.584,36.2,14,32.962,10.768Z" transform="translate(9.863 25.932)" fill="#f6f7fc"/>
    </g>
    <g id="pets_black_24dp-9" data-name="pets_black_24dp" transform="translate(863.203 336.12) rotate(-90)">
      <path id="Path_9539-9" data-name="Path 9539" d="M0,0H59.272V59.272H0Z" transform="translate(0 0)" fill="none"/>
      <ellipse id="Ellipse_1170-9" data-name="Ellipse 1170" cx="6.174" cy="6.174" rx="6.174" ry="6.174" transform="translate(4.939 17.288)" fill="#f6f7fc"/>
      <ellipse id="Ellipse_1171-9" data-name="Ellipse 1171" cx="6.174" cy="6.174" rx="6.174" ry="6.174" transform="translate(16.053 7.409)" fill="#f6f7fc"/>
      <ellipse id="Ellipse_1172-9" data-name="Ellipse 1172" cx="6.174" cy="6.174" rx="6.174" ry="6.174" transform="translate(30.871 7.409)" fill="#f6f7fc"/>
      <ellipse id="Ellipse_1173-9" data-name="Ellipse 1173" cx="6.174" cy="6.174" rx="6.174" ry="6.174" transform="translate(41.985 17.288)" fill="#f6f7fc"/>
      <path id="Path_9540-9" data-name="Path 9540" d="M32.962,10.768C30.813,8.249,29.01,6.1,26.837,3.581A10.478,10.478,0,0,0,22.515.321,5,5,0,0,0,21.7.1,12.43,12.43,0,0,0,19.773,0a10.36,10.36,0,0,0-1.951.123,5,5,0,0,0-.815.222,10.639,10.639,0,0,0-4.322,3.26c-2.149,2.519-3.951,4.668-6.125,7.187C3.325,14.028-.651,17.609.09,22.622a7.754,7.754,0,0,0,5.754,5.73c1.8.37,7.557-1.087,13.682-1.087h.445c6.125,0,11.879,1.432,13.682,1.087a7.791,7.791,0,0,0,5.754-5.73C40.173,17.584,36.2,14,32.962,10.768Z" transform="translate(9.863 25.932)" fill="#f6f7fc"/>
    </g>
    <g id="pets_black_24dp-10" data-name="pets_black_24dp" transform="matrix(-0.259, -0.966, 0.966, -0.259, 696.756, 505.946)">
      <path id="Path_9539-10" data-name="Path 9539" d="M0,0H59.421V59.421H0Z" transform="translate(0 0)" fill="none"/>
      <ellipse id="Ellipse_1170-10" data-name="Ellipse 1170" cx="6.19" cy="6.19" rx="6.19" ry="6.19" transform="translate(4.952 17.331)" fill="#f6f7fc"/>
      <ellipse id="Ellipse_1171-10" data-name="Ellipse 1171" cx="6.19" cy="6.19" rx="6.19" ry="6.19" transform="translate(16.093 7.428)" fill="#f6f7fc"/>
      <ellipse id="Ellipse_1172-10" data-name="Ellipse 1172" cx="6.19" cy="6.19" rx="6.19" ry="6.19" transform="translate(30.948 7.428)" fill="#f6f7fc"/>
      <ellipse id="Ellipse_1173-10" data-name="Ellipse 1173" cx="6.19" cy="6.19" rx="6.19" ry="6.19" transform="translate(42.09 17.331)" fill="#f6f7fc"/>
      <path id="Path_9540-10" data-name="Path 9540" d="M33.044,10.795c-2.154-2.525-3.961-4.679-6.14-7.2A10.5,10.5,0,0,0,22.571.322,5.012,5.012,0,0,0,21.754.1,12.461,12.461,0,0,0,19.823,0a10.386,10.386,0,0,0-1.956.124,5.013,5.013,0,0,0-.817.223,10.666,10.666,0,0,0-4.333,3.268c-2.154,2.525-3.961,4.679-6.14,7.2C3.334,14.063-.652,17.653.09,22.679a7.773,7.773,0,0,0,5.769,5.744c1.807.371,7.576-1.089,13.716-1.089h.446c6.14,0,11.909,1.436,13.716,1.089a7.811,7.811,0,0,0,5.769-5.744c.768-5.051-3.219-8.641-6.462-11.884Z" transform="translate(9.887 25.997)" fill="#f6f7fc"/>
    </g>
    <g id="pets_black_24dp-11" data-name="pets_black_24dp" transform="matrix(-0.259, -0.966, 0.966, -0.259, 594.756, 342.871)">
      <path id="Path_9539-11" data-name="Path 9539" d="M0,0H59.421V59.421H0Z" transform="translate(0 0)" fill="none"/>
      <ellipse id="Ellipse_1170-11" data-name="Ellipse 1170" cx="6.19" cy="6.19" rx="6.19" ry="6.19" transform="translate(4.952 17.331)" fill="#f6f7fc"/>
      <ellipse id="Ellipse_1171-11" data-name="Ellipse 1171" cx="6.19" cy="6.19" rx="6.19" ry="6.19" transform="translate(16.093 7.428)" fill="#f6f7fc"/>
      <ellipse id="Ellipse_1172-11" data-name="Ellipse 1172" cx="6.19" cy="6.19" rx="6.19" ry="6.19" transform="translate(30.948 7.428)" fill="#f6f7fc"/>
      <ellipse id="Ellipse_1173-11" data-name="Ellipse 1173" cx="6.19" cy="6.19" rx="6.19" ry="6.19" transform="translate(42.09 17.331)" fill="#f6f7fc"/>
      <path id="Path_9540-11" data-name="Path 9540" d="M33.044,10.795c-2.154-2.525-3.961-4.679-6.14-7.2A10.5,10.5,0,0,0,22.571.322,5.012,5.012,0,0,0,21.754.1,12.461,12.461,0,0,0,19.823,0a10.386,10.386,0,0,0-1.956.124,5.013,5.013,0,0,0-.817.223,10.666,10.666,0,0,0-4.333,3.268c-2.154,2.525-3.961,4.679-6.14,7.2C3.334,14.063-.652,17.653.09,22.679a7.773,7.773,0,0,0,5.769,5.744c1.807.371,7.576-1.089,13.716-1.089h.446c6.14,0,11.909,1.436,13.716,1.089a7.811,7.811,0,0,0,5.769-5.744c.768-5.051-3.219-8.641-6.462-11.884Z" transform="translate(9.887 25.997)" fill="#f6f7fc"/>
    </g>
    <g id="pets_black_24dp-12" data-name="pets_black_24dp" transform="translate(479.89 539.069) rotate(-120)">
      <path id="Path_9539-12" data-name="Path 9539" d="M0,0H59.421V59.421H0Z" transform="translate(0 0)" fill="none"/>
      <circle id="Ellipse_1170-12" data-name="Ellipse 1170" cx="6.19" cy="6.19" r="6.19" transform="translate(4.952 17.331)" fill="#f6f7fc"/>
      <circle id="Ellipse_1171-12" data-name="Ellipse 1171" cx="6.19" cy="6.19" r="6.19" transform="translate(16.093 7.428)" fill="#f6f7fc"/>
      <circle id="Ellipse_1172-12" data-name="Ellipse 1172" cx="6.19" cy="6.19" r="6.19" transform="translate(30.948 7.428)" fill="#f6f7fc"/>
      <circle id="Ellipse_1173-12" data-name="Ellipse 1173" cx="6.19" cy="6.19" r="6.19" transform="translate(42.09 17.331)" fill="#f6f7fc"/>
      <path id="Path_9540-12" data-name="Path 9540" d="M33.044,10.795c-2.154-2.525-3.961-4.679-6.14-7.2A10.5,10.5,0,0,0,22.571.322,5.013,5.013,0,0,0,21.754.1,12.461,12.461,0,0,0,19.823,0a10.386,10.386,0,0,0-1.956.124,5.013,5.013,0,0,0-.817.223,10.666,10.666,0,0,0-4.333,3.268c-2.154,2.525-3.961,4.679-6.14,7.2C3.334,14.063-.652,17.653.09,22.679a7.773,7.773,0,0,0,5.769,5.744c1.807.371,7.576-1.089,13.716-1.089h.446c6.14,0,11.909,1.436,13.716,1.089a7.811,7.811,0,0,0,5.769-5.744c.768-5.051-3.219-8.641-6.462-11.884Z" transform="translate(9.887 25.997)" fill="#f6f7fc"/>
    </g>
    <g id="pets_black_24dp-13" data-name="pets_black_24dp" transform="translate(232.64 500.069) rotate(-150)">
      <path id="Path_9539-13" data-name="Path 9539" d="M0,0H59.421V59.421H0Z" transform="translate(0 0)" fill="none"/>
      <circle id="Ellipse_1170-13" data-name="Ellipse 1170" cx="6.19" cy="6.19" r="6.19" transform="translate(4.952 17.331)" fill="#f6f7fc"/>
      <circle id="Ellipse_1171-13" data-name="Ellipse 1171" cx="6.19" cy="6.19" r="6.19" transform="translate(16.093 7.428)" fill="#f6f7fc"/>
      <circle id="Ellipse_1172-13" data-name="Ellipse 1172" cx="6.19" cy="6.19" r="6.19" transform="translate(30.948 7.428)" fill="#f6f7fc"/>
      <circle id="Ellipse_1173-13" data-name="Ellipse 1173" cx="6.19" cy="6.19" r="6.19" transform="translate(42.09 17.331)" fill="#f6f7fc"/>
      <path id="Path_9540-13" data-name="Path 9540" d="M33.044,10.795c-2.154-2.525-3.961-4.679-6.14-7.2A10.5,10.5,0,0,0,22.571.322,5.013,5.013,0,0,0,21.754.1,12.461,12.461,0,0,0,19.823,0a10.386,10.386,0,0,0-1.956.124,5.013,5.013,0,0,0-.817.223,10.666,10.666,0,0,0-4.333,3.268c-2.154,2.525-3.961,4.679-6.14,7.2C3.334,14.063-.652,17.653.09,22.679a7.773,7.773,0,0,0,5.769,5.744c1.807.371,7.576-1.089,13.716-1.089h.446c6.14,0,11.909,1.436,13.716,1.089a7.811,7.811,0,0,0,5.769-5.744c.768-5.051-3.219-8.641-6.462-11.884Z" transform="translate(9.887 25.997)" fill="#f6f7fc"/>
    </g>
    <g id="pets_black_24dp-14" data-name="pets_black_24dp" transform="matrix(-0.966, -0.259, 0.259, -0.966, 318.774, 655.871)">
      <path id="Path_9539-14" data-name="Path 9539" d="M0,0H59.421V59.421H0Z" transform="translate(0 0)" fill="none"/>
      <ellipse id="Ellipse_1170-14" data-name="Ellipse 1170" cx="6.19" cy="6.19" rx="6.19" ry="6.19" transform="translate(4.952 17.331)" fill="#f6f7fc"/>
      <ellipse id="Ellipse_1171-14" data-name="Ellipse 1171" cx="6.19" cy="6.19" rx="6.19" ry="6.19" transform="translate(16.093 7.428)" fill="#f6f7fc"/>
      <ellipse id="Ellipse_1172-14" data-name="Ellipse 1172" cx="6.19" cy="6.19" rx="6.19" ry="6.19" transform="translate(30.948 7.428)" fill="#f6f7fc"/>
      <ellipse id="Ellipse_1173-14" data-name="Ellipse 1173" cx="6.19" cy="6.19" rx="6.19" ry="6.19" transform="translate(42.09 17.331)" fill="#f6f7fc"/>
      <path id="Path_9540-14" data-name="Path 9540" d="M33.044,10.795c-2.154-2.525-3.961-4.679-6.14-7.2A10.5,10.5,0,0,0,22.571.322,5.013,5.013,0,0,0,21.754.1,12.46,12.46,0,0,0,19.823,0a10.386,10.386,0,0,0-1.956.124,5.013,5.013,0,0,0-.817.223,10.666,10.666,0,0,0-4.333,3.268c-2.154,2.525-3.961,4.679-6.14,7.2C3.334,14.063-.652,17.653.09,22.679a7.773,7.773,0,0,0,5.769,5.744c1.807.371,7.576-1.089,13.716-1.089h.446c6.14,0,11.909,1.436,13.716,1.089a7.811,7.811,0,0,0,5.769-5.744c.768-5.051-3.219-8.641-6.462-11.884Z" transform="translate(9.887 25.997)" fill="#f6f7fc"/>
    </g>
    <g id="pets_black_24dp-15" data-name="pets_black_24dp" transform="matrix(-0.966, -0.259, 0.259, -0.966, 146.774, 836.871)">
      <path id="Path_9539-15" data-name="Path 9539" d="M0,0H59.421V59.421H0Z" transform="translate(0 0)" fill="none"/>
      <ellipse id="Ellipse_1170-15" data-name="Ellipse 1170" cx="6.19" cy="6.19" rx="6.19" ry="6.19" transform="translate(4.952 17.331)" fill="#f6f7fc"/>
      <ellipse id="Ellipse_1171-15" data-name="Ellipse 1171" cx="6.19" cy="6.19" rx="6.19" ry="6.19" transform="translate(16.093 7.428)" fill="#f6f7fc"/>
      <ellipse id="Ellipse_1172-15" data-name="Ellipse 1172" cx="6.19" cy="6.19" rx="6.19" ry="6.19" transform="translate(30.948 7.428)" fill="#f6f7fc"/>
      <ellipse id="Ellipse_1173-15" data-name="Ellipse 1173" cx="6.19" cy="6.19" rx="6.19" ry="6.19" transform="translate(42.09 17.331)" fill="#f6f7fc"/>
      <path id="Path_9540-15" data-name="Path 9540" d="M33.044,10.795c-2.154-2.525-3.961-4.679-6.14-7.2A10.5,10.5,0,0,0,22.571.322,5.013,5.013,0,0,0,21.754.1,12.46,12.46,0,0,0,19.823,0a10.386,10.386,0,0,0-1.956.124,5.013,5.013,0,0,0-.817.223,10.666,10.666,0,0,0-4.333,3.268c-2.154,2.525-3.961,4.679-6.14,7.2C3.334,14.063-.652,17.653.09,22.679a7.773,7.773,0,0,0,5.769,5.744c1.807.371,7.576-1.089,13.716-1.089h.446c6.14,0,11.909,1.436,13.716,1.089a7.811,7.811,0,0,0,5.769-5.744c.768-5.051-3.219-8.641-6.462-11.884Z" transform="translate(9.887 25.997)" fill="#f6f7fc"/>
    </g>
    <g id="pets_black_24dp-16" data-name="pets_black_24dp" transform="translate(84.034 925.483) rotate(135)">
      <path id="Path_9539-16" data-name="Path 9539" d="M0,0H59.421V59.421H0Z" transform="translate(0 0)" fill="none"/>
      <circle id="Ellipse_1170-16" data-name="Ellipse 1170" cx="6.19" cy="6.19" r="6.19" transform="translate(4.952 17.331)" fill="#f6f7fc"/>
      <circle id="Ellipse_1171-16" data-name="Ellipse 1171" cx="6.19" cy="6.19" r="6.19" transform="translate(16.093 7.428)" fill="#f6f7fc"/>
      <circle id="Ellipse_1172-16" data-name="Ellipse 1172" cx="6.19" cy="6.19" r="6.19" transform="translate(30.948 7.428)" fill="#f6f7fc"/>
      <circle id="Ellipse_1173-16" data-name="Ellipse 1173" cx="6.19" cy="6.19" r="6.19" transform="translate(42.09 17.331)" fill="#f6f7fc"/>
      <path id="Path_9540-16" data-name="Path 9540" d="M33.044,10.795c-2.154-2.525-3.961-4.679-6.14-7.2A10.5,10.5,0,0,0,22.571.322,5.013,5.013,0,0,0,21.754.1,12.461,12.461,0,0,0,19.823,0a10.386,10.386,0,0,0-1.956.124,5.013,5.013,0,0,0-.817.223,10.666,10.666,0,0,0-4.333,3.268c-2.154,2.525-3.961,4.679-6.14,7.2C3.334,14.063-.652,17.653.09,22.679a7.773,7.773,0,0,0,5.769,5.744c1.807.371,7.576-1.089,13.716-1.089h.446c6.14,0,11.909,1.436,13.716,1.089a7.811,7.811,0,0,0,5.769-5.744c.768-5.051-3.219-8.641-6.462-11.884Z" transform="translate(9.887 25.997)" fill="#f6f7fc"/>
    </g>
    <g id="pets_black_24dp-17" data-name="pets_black_24dp" transform="matrix(-0.966, 0.259, -0.259, -0.966, 182.405, 1041.492)">
      <path id="Path_9539-17" data-name="Path 9539" d="M0,0H59.421V59.421H0Z" transform="translate(0 0)" fill="none"/>
      <ellipse id="Ellipse_1170-17" data-name="Ellipse 1170" cx="6.19" cy="6.19" rx="6.19" ry="6.19" transform="translate(4.952 17.331)" fill="#f6f7fc"/>
      <ellipse id="Ellipse_1171-17" data-name="Ellipse 1171" cx="6.19" cy="6.19" rx="6.19" ry="6.19" transform="translate(16.093 7.428)" fill="#f6f7fc"/>
      <ellipse id="Ellipse_1172-17" data-name="Ellipse 1172" cx="6.19" cy="6.19" rx="6.19" ry="6.19" transform="translate(30.948 7.428)" fill="#f6f7fc"/>
      <ellipse id="Ellipse_1173-17" data-name="Ellipse 1173" cx="6.19" cy="6.19" rx="6.19" ry="6.19" transform="translate(42.09 17.331)" fill="#f6f7fc"/>
      <path id="Path_9540-17" data-name="Path 9540" d="M33.044,10.795c-2.154-2.525-3.961-4.679-6.14-7.2A10.5,10.5,0,0,0,22.571.322,5.013,5.013,0,0,0,21.754.1,12.461,12.461,0,0,0,19.823,0a10.386,10.386,0,0,0-1.956.124,5.013,5.013,0,0,0-.817.223,10.666,10.666,0,0,0-4.333,3.268c-2.154,2.525-3.961,4.679-6.14,7.2C3.334,14.063-.652,17.653.09,22.679a7.773,7.773,0,0,0,5.769,5.744c1.807.371,7.576-1.089,13.716-1.089h.446c6.14,0,11.909,1.436,13.716,1.089a7.811,7.811,0,0,0,5.769-5.744c.768-5.051-3.219-8.641-6.462-11.884Z" transform="translate(9.887 25.997)" fill="#f6f7fc"/>
    </g>
    <g id="pets_black_24dp-18" data-name="pets_black_24dp" transform="matrix(-0.966, -0.259, 0.259, -0.966, 68.655, 1189.871)">
      <path id="Path_9539-18" data-name="Path 9539" d="M0,0H59.421V59.421H0Z" transform="translate(0 0)" fill="none"/>
      <ellipse id="Ellipse_1170-18" data-name="Ellipse 1170" cx="6.19" cy="6.19" rx="6.19" ry="6.19" transform="translate(4.952 17.331)" fill="#f6f7fc"/>
      <ellipse id="Ellipse_1171-18" data-name="Ellipse 1171" cx="6.19" cy="6.19" rx="6.19" ry="6.19" transform="translate(16.093 7.428)" fill="#f6f7fc"/>
      <ellipse id="Ellipse_1172-18" data-name="Ellipse 1172" cx="6.19" cy="6.19" rx="6.19" ry="6.19" transform="translate(30.948 7.428)" fill="#f6f7fc"/>
      <ellipse id="Ellipse_1173-18" data-name="Ellipse 1173" cx="6.19" cy="6.19" rx="6.19" ry="6.19" transform="translate(42.09 17.331)" fill="#f6f7fc"/>
      <path id="Path_9540-18" data-name="Path 9540" d="M33.044,10.795c-2.154-2.525-3.961-4.679-6.14-7.2A10.5,10.5,0,0,0,22.571.322,5.013,5.013,0,0,0,21.754.1,12.46,12.46,0,0,0,19.823,0a10.386,10.386,0,0,0-1.956.124,5.013,5.013,0,0,0-.817.223,10.666,10.666,0,0,0-4.333,3.268c-2.154,2.525-3.961,4.679-6.14,7.2C3.334,14.063-.652,17.653.09,22.679a7.773,7.773,0,0,0,5.769,5.744c1.807.371,7.576-1.089,13.716-1.089h.446c6.14,0,11.909,1.436,13.716,1.089a7.811,7.811,0,0,0,5.769-5.744c.768-5.051-3.219-8.641-6.462-11.884Z" transform="translate(9.887 25.997)" fill="#f6f7fc"/>
    </g>
    <g id="Group_35924" data-name="Group 35924" transform="translate(1586.629 712.368)">
      <path id="Path_9558" data-name="Path 9558" d="M0,0H99.253V99.253H0Z" transform="translate(0)" fill="none"/>
    </g>
  </g>
</svg>
