<svg id="Group_35962" data-name="Group 35962" xmlns="http://www.w3.org/2000/svg" width="195.43" height="29.314" viewBox="0 0 195.43 29.314">
  <g id="star_black_24dp">
    <path id="Path_9560" data-name="Path 9560" d="M0,0H29.314V29.314H0Z" fill="none"/>
    <path id="Path_9561" data-name="Path 9561" d="M0,0H29.314V29.314H0Z" fill="none"/>
    <path id="Path_9562" data-name="Path 9562" d="M14.214,20.651l7.548,4.556-2-8.587,6.669-5.777L17.647,10.1,14.214,2l-3.432,8.1L2,10.843l6.669,5.777-2,8.587Z" transform="translate(0.443 0.443)" fill="#f1d800"/>
  </g>
  <g id="star_black_24dp-2" data-name="star_black_24dp" transform="translate(41.529)">
    <path id="Path_9560-2" data-name="Path 9560" d="M0,0H29.314V29.314H0Z" fill="none"/>
    <path id="Path_9561-2" data-name="Path 9561" d="M0,0H29.314V29.314H0Z" fill="none"/>
    <path id="Path_9562-2" data-name="Path 9562" d="M14.214,20.651l7.548,4.556-2-8.587,6.669-5.777L17.647,10.1,14.214,2l-3.432,8.1L2,10.843l6.669,5.777-2,8.587Z" transform="translate(0.443 0.443)" fill="#f1d800"/>
  </g>
  <g id="star_black_24dp-3" data-name="star_black_24dp" transform="translate(83.058)">
    <path id="Path_9560-3" data-name="Path 9560" d="M0,0H29.314V29.314H0Z" fill="none"/>
    <path id="Path_9561-3" data-name="Path 9561" d="M0,0H29.314V29.314H0Z" fill="none"/>
    <path id="Path_9562-3" data-name="Path 9562" d="M14.214,20.651l7.548,4.556-2-8.587,6.669-5.777L17.647,10.1,14.214,2l-3.432,8.1L2,10.843l6.669,5.777-2,8.587Z" transform="translate(0.443 0.443)" fill="#f1d800"/>
  </g>
  <g id="star_black_24dp-4" data-name="star_black_24dp" transform="translate(124.586)">
    <path id="Path_9560-4" data-name="Path 9560" d="M0,0H29.314V29.314H0Z" fill="none"/>
    <path id="Path_9561-4" data-name="Path 9561" d="M0,0H29.314V29.314H0Z" fill="none"/>
    <path id="Path_9562-4" data-name="Path 9562" d="M14.214,20.651l7.548,4.556-2-8.587,6.669-5.777L17.647,10.1,14.214,2l-3.432,8.1L2,10.843l6.669,5.777-2,8.587Z" transform="translate(0.443 0.443)" fill="#f1d800"/>
  </g>
  <g id="star_black_24dp-5" data-name="star_black_24dp" transform="translate(166.115)">
    <path id="Path_9560-5" data-name="Path 9560" d="M0,0H29.314V29.314H0Z" fill="none"/>
    <path id="Path_9561-5" data-name="Path 9561" d="M0,0H29.314V29.314H0Z" fill="none"/>
    <path id="Path_9562-5" data-name="Path 9562" d="M14.214,20.651l7.548,4.556-2-8.587,6.669-5.777L17.647,10.1,14.214,2l-3.432,8.1L2,10.843l6.669,5.777-2,8.587Z" transform="translate(0.443 0.443)" fill="#f1d800"/>
  </g>
</svg>
